<svg xmlns="http://www.w3.org/2000/svg" xmlns:xlink="http://www.w3.org/1999/xlink" viewBox="0 0 112.79 112.94"><defs><style>.cls-1{fill:url(#名称未設定グラデーション_212);}.cls-2,.cls-3{opacity:0.8;}.cls-2{fill:url(#名称未設定グラデーション_12);}.cls-3{fill:url(#名称未設定グラデーション_12-2);}</style><radialGradient id="名称未設定グラデーション_212" cx="-5.08" cy="103.77" r="136.92" gradientUnits="userSpaceOnUse"><stop offset="0.19" stop-color="#3686fe"/><stop offset="0.34" stop-color="#3b8bfe"/><stop offset="0.52" stop-color="#4999fe"/><stop offset="0.71" stop-color="#60b1fe"/><stop offset="0.9" stop-color="#80d2ff"/><stop offset="1" stop-color="#93e5ff"/></radialGradient><linearGradient id="名称未設定グラデーション_12" x1="5.25" y1="63.4" x2="112.7" y2="63.4" gradientUnits="userSpaceOnUse"><stop offset="0" stop-color="#fff"/><stop offset="1" stop-color="#fff"/></linearGradient><linearGradient id="名称未設定グラデーション_12-2" x1="0.6" y1="50.92" x2="109.21" y2="50.92" xlink:href="#名称未設定グラデーション_12"/></defs><g id="レイヤー_2" data-name="レイヤー 2"><g id="レイヤー_1-2" data-name="レイヤー 1"><path class="cls-1" d="M112.79,56.54a56.4,56.4,0,0,1-56.39,56.4c-8.11,0-17.26-1-15.87-5.5s49.58-17,35.59-31.75C63.92,62.8,32.74,103,10.7,84.74,3.69,78.94,0,66.28,0,56.54V56.4A56.4,56.4,0,0,1,56.4,0c8.1,0,17.25,1,15.86,5.49s-49.58,17-35.59,31.76c12.2,12.89,43.38-27.29,65.42-9,7,5.8,10.7,18.46,10.7,28.2"/><path class="cls-2" d="M13.11,83C28,83,44,73.49,59.47,64.29,76.15,54.39,91.91,45,104.26,48.64a19.73,19.73,0,0,1,8.44,5.14A48.26,48.26,0,0,0,112,48a22.57,22.57,0,0,0-6.58-3.16c-14-4.08-30.5,5.7-47.95,16.05C39.61,71.42,21.19,82.34,5.56,77.94l-.31-.1a26.74,26.74,0,0,0,3.32,4.79A32.67,32.67,0,0,0,13.11,83Z"/><path class="cls-3" d="M104.9,32.53C87.62,27.65,68.45,39,49.91,50,33.23,59.92,17.47,69.27,5.12,65.67a18.26,18.26,0,0,1-4.52-2,50.1,50.1,0,0,0,1.07,5A22.93,22.93,0,0,0,4,69.51a24.14,24.14,0,0,0,6.89.95c12.41,0,26.39-8.29,41.06-17C69.77,42.9,88.19,32,103.82,36.38a26.51,26.51,0,0,1,5.39,2.22,33.94,33.94,0,0,0-3-5.65C105.8,32.81,105.35,32.66,104.9,32.53Z"/></g></g></svg>